<mxfile host="app.diagrams.net" modified="2024-03-18T07:41:15.693Z" agent="Mozilla/5.0 (Windows NT 10.0; Win64; x64) AppleWebKit/537.36 (KHTML, like Gecko) Chrome/122.0.0.0 Safari/537.36" etag="pa8lKzatRx9UtU0_oY18" version="24.0.6" type="github">
  <diagram id="C5RBs43oDa-KdzZeNtuy" name="Page-1">
    <mxGraphModel dx="2876" dy="1066" grid="1" gridSize="10" guides="1" tooltips="1" connect="1" arrows="1" fold="1" page="1" pageScale="1" pageWidth="827" pageHeight="1169" math="0" shadow="0">
      <root>
        <mxCell id="WIyWlLk6GJQsqaUBKTNV-0" />
        <mxCell id="WIyWlLk6GJQsqaUBKTNV-1" parent="WIyWlLk6GJQsqaUBKTNV-0" />
        <mxCell id="e64fO4rDvGFqv9mi6fko-7" value="发布流程" style="swimlane;childLayout=stackLayout;resizeParent=1;resizeParentMax=0;horizontal=1;startSize=20;horizontalStack=0;html=1;" vertex="1" parent="WIyWlLk6GJQsqaUBKTNV-1">
          <mxGeometry x="-20" y="540" width="1560" height="270" as="geometry" />
        </mxCell>
        <mxCell id="e64fO4rDvGFqv9mi6fko-8" value="RYDEEN" style="swimlane;startSize=20;horizontal=0;html=1;" vertex="1" parent="e64fO4rDvGFqv9mi6fko-7">
          <mxGeometry y="20" width="1560" height="120" as="geometry" />
        </mxCell>
        <mxCell id="e64fO4rDvGFqv9mi6fko-15" value="" style="edgeStyle=orthogonalEdgeStyle;rounded=0;orthogonalLoop=1;jettySize=auto;html=1;" edge="1" parent="e64fO4rDvGFqv9mi6fko-8" source="e64fO4rDvGFqv9mi6fko-11" target="e64fO4rDvGFqv9mi6fko-13">
          <mxGeometry relative="1" as="geometry" />
        </mxCell>
        <mxCell id="e64fO4rDvGFqv9mi6fko-11" value="开始" style="strokeWidth=2;html=1;shape=mxgraph.flowchart.terminator;whiteSpace=wrap;" vertex="1" parent="e64fO4rDvGFqv9mi6fko-8">
          <mxGeometry x="60" y="30" width="100" height="60" as="geometry" />
        </mxCell>
        <mxCell id="e64fO4rDvGFqv9mi6fko-21" value="" style="edgeStyle=orthogonalEdgeStyle;rounded=0;orthogonalLoop=1;jettySize=auto;html=1;" edge="1" parent="e64fO4rDvGFqv9mi6fko-8" source="e64fO4rDvGFqv9mi6fko-13" target="e64fO4rDvGFqv9mi6fko-18">
          <mxGeometry relative="1" as="geometry" />
        </mxCell>
        <mxCell id="e64fO4rDvGFqv9mi6fko-13" value="开发" style="rounded=1;whiteSpace=wrap;html=1;absoluteArcSize=1;arcSize=14;strokeWidth=2;" vertex="1" parent="e64fO4rDvGFqv9mi6fko-8">
          <mxGeometry x="220" y="30" width="110" height="60" as="geometry" />
        </mxCell>
        <mxCell id="e64fO4rDvGFqv9mi6fko-22" value="" style="edgeStyle=orthogonalEdgeStyle;rounded=0;orthogonalLoop=1;jettySize=auto;html=1;" edge="1" parent="e64fO4rDvGFqv9mi6fko-8" source="e64fO4rDvGFqv9mi6fko-18" target="e64fO4rDvGFqv9mi6fko-19">
          <mxGeometry relative="1" as="geometry" />
        </mxCell>
        <mxCell id="e64fO4rDvGFqv9mi6fko-18" value="提测" style="rounded=1;whiteSpace=wrap;html=1;absoluteArcSize=1;arcSize=14;strokeWidth=2;" vertex="1" parent="e64fO4rDvGFqv9mi6fko-8">
          <mxGeometry x="390" y="30" width="110" height="60" as="geometry" />
        </mxCell>
        <mxCell id="e64fO4rDvGFqv9mi6fko-23" value="" style="edgeStyle=orthogonalEdgeStyle;rounded=0;orthogonalLoop=1;jettySize=auto;html=1;" edge="1" parent="e64fO4rDvGFqv9mi6fko-8" source="e64fO4rDvGFqv9mi6fko-19" target="e64fO4rDvGFqv9mi6fko-20">
          <mxGeometry relative="1" as="geometry" />
        </mxCell>
        <mxCell id="e64fO4rDvGFqv9mi6fko-19" value="测试" style="rounded=1;whiteSpace=wrap;html=1;absoluteArcSize=1;arcSize=14;strokeWidth=2;" vertex="1" parent="e64fO4rDvGFqv9mi6fko-8">
          <mxGeometry x="560" y="30" width="110" height="60" as="geometry" />
        </mxCell>
        <mxCell id="e64fO4rDvGFqv9mi6fko-25" value="" style="edgeStyle=orthogonalEdgeStyle;rounded=0;orthogonalLoop=1;jettySize=auto;html=1;" edge="1" parent="e64fO4rDvGFqv9mi6fko-8" source="e64fO4rDvGFqv9mi6fko-20" target="e64fO4rDvGFqv9mi6fko-24">
          <mxGeometry relative="1" as="geometry" />
        </mxCell>
        <mxCell id="e64fO4rDvGFqv9mi6fko-20" value="测试通过" style="rounded=1;whiteSpace=wrap;html=1;absoluteArcSize=1;arcSize=14;strokeWidth=2;" vertex="1" parent="e64fO4rDvGFqv9mi6fko-8">
          <mxGeometry x="730" y="30" width="110" height="60" as="geometry" />
        </mxCell>
        <mxCell id="e64fO4rDvGFqv9mi6fko-24" value="合并代码&lt;div&gt;到oppo分支&lt;/div&gt;" style="rounded=1;whiteSpace=wrap;html=1;absoluteArcSize=1;arcSize=14;strokeWidth=2;" vertex="1" parent="e64fO4rDvGFqv9mi6fko-8">
          <mxGeometry x="900" y="30" width="110" height="60" as="geometry" />
        </mxCell>
        <mxCell id="e64fO4rDvGFqv9mi6fko-9" value="OPPO" style="swimlane;startSize=20;horizontal=0;html=1;" vertex="1" parent="e64fO4rDvGFqv9mi6fko-7">
          <mxGeometry y="140" width="1560" height="130" as="geometry" />
        </mxCell>
        <mxCell id="e64fO4rDvGFqv9mi6fko-29" value="" style="edgeStyle=orthogonalEdgeStyle;rounded=0;orthogonalLoop=1;jettySize=auto;html=1;" edge="1" parent="e64fO4rDvGFqv9mi6fko-9" source="e64fO4rDvGFqv9mi6fko-30" target="e64fO4rDvGFqv9mi6fko-32">
          <mxGeometry relative="1" as="geometry" />
        </mxCell>
        <mxCell id="e64fO4rDvGFqv9mi6fko-30" value="开始" style="strokeWidth=2;html=1;shape=mxgraph.flowchart.terminator;whiteSpace=wrap;" vertex="1" parent="e64fO4rDvGFqv9mi6fko-9">
          <mxGeometry x="60" y="30" width="100" height="60" as="geometry" />
        </mxCell>
        <mxCell id="e64fO4rDvGFqv9mi6fko-31" value="" style="edgeStyle=orthogonalEdgeStyle;rounded=0;orthogonalLoop=1;jettySize=auto;html=1;" edge="1" parent="e64fO4rDvGFqv9mi6fko-9" source="e64fO4rDvGFqv9mi6fko-32" target="e64fO4rDvGFqv9mi6fko-34">
          <mxGeometry relative="1" as="geometry" />
        </mxCell>
        <mxCell id="e64fO4rDvGFqv9mi6fko-32" value="开发" style="rounded=1;whiteSpace=wrap;html=1;absoluteArcSize=1;arcSize=14;strokeWidth=2;" vertex="1" parent="e64fO4rDvGFqv9mi6fko-9">
          <mxGeometry x="220" y="30" width="110" height="60" as="geometry" />
        </mxCell>
        <mxCell id="e64fO4rDvGFqv9mi6fko-33" value="" style="edgeStyle=orthogonalEdgeStyle;rounded=0;orthogonalLoop=1;jettySize=auto;html=1;" edge="1" parent="e64fO4rDvGFqv9mi6fko-9" source="e64fO4rDvGFqv9mi6fko-34" target="e64fO4rDvGFqv9mi6fko-36">
          <mxGeometry relative="1" as="geometry" />
        </mxCell>
        <mxCell id="e64fO4rDvGFqv9mi6fko-34" value="提测" style="rounded=1;whiteSpace=wrap;html=1;absoluteArcSize=1;arcSize=14;strokeWidth=2;" vertex="1" parent="e64fO4rDvGFqv9mi6fko-9">
          <mxGeometry x="390" y="30" width="110" height="60" as="geometry" />
        </mxCell>
        <mxCell id="e64fO4rDvGFqv9mi6fko-35" value="" style="edgeStyle=orthogonalEdgeStyle;rounded=0;orthogonalLoop=1;jettySize=auto;html=1;" edge="1" parent="e64fO4rDvGFqv9mi6fko-9" source="e64fO4rDvGFqv9mi6fko-36" target="e64fO4rDvGFqv9mi6fko-38">
          <mxGeometry relative="1" as="geometry" />
        </mxCell>
        <mxCell id="e64fO4rDvGFqv9mi6fko-36" value="测试" style="rounded=1;whiteSpace=wrap;html=1;absoluteArcSize=1;arcSize=14;strokeWidth=2;" vertex="1" parent="e64fO4rDvGFqv9mi6fko-9">
          <mxGeometry x="560" y="30" width="110" height="60" as="geometry" />
        </mxCell>
        <mxCell id="e64fO4rDvGFqv9mi6fko-54" value="" style="edgeStyle=orthogonalEdgeStyle;rounded=0;orthogonalLoop=1;jettySize=auto;html=1;" edge="1" parent="e64fO4rDvGFqv9mi6fko-9" source="e64fO4rDvGFqv9mi6fko-38" target="e64fO4rDvGFqv9mi6fko-40">
          <mxGeometry relative="1" as="geometry" />
        </mxCell>
        <mxCell id="e64fO4rDvGFqv9mi6fko-38" value="测试通过" style="rounded=1;whiteSpace=wrap;html=1;absoluteArcSize=1;arcSize=14;strokeWidth=2;" vertex="1" parent="e64fO4rDvGFqv9mi6fko-9">
          <mxGeometry x="730" y="30" width="110" height="60" as="geometry" />
        </mxCell>
        <mxCell id="e64fO4rDvGFqv9mi6fko-43" value="" style="edgeStyle=orthogonalEdgeStyle;rounded=0;orthogonalLoop=1;jettySize=auto;html=1;" edge="1" parent="e64fO4rDvGFqv9mi6fko-9" source="e64fO4rDvGFqv9mi6fko-40" target="e64fO4rDvGFqv9mi6fko-42">
          <mxGeometry relative="1" as="geometry" />
        </mxCell>
        <mxCell id="e64fO4rDvGFqv9mi6fko-40" value="拉取合并代码&lt;div&gt;到rydeen分支&lt;/div&gt;" style="rounded=1;whiteSpace=wrap;html=1;absoluteArcSize=1;arcSize=14;strokeWidth=2;" vertex="1" parent="e64fO4rDvGFqv9mi6fko-9">
          <mxGeometry x="900" y="30" width="110" height="60" as="geometry" />
        </mxCell>
        <mxCell id="e64fO4rDvGFqv9mi6fko-45" value="" style="edgeStyle=orthogonalEdgeStyle;rounded=0;orthogonalLoop=1;jettySize=auto;html=1;" edge="1" parent="e64fO4rDvGFqv9mi6fko-9" source="e64fO4rDvGFqv9mi6fko-42" target="e64fO4rDvGFqv9mi6fko-44">
          <mxGeometry relative="1" as="geometry" />
        </mxCell>
        <mxCell id="e64fO4rDvGFqv9mi6fko-42" value="回归测试" style="rounded=1;whiteSpace=wrap;html=1;absoluteArcSize=1;arcSize=14;strokeWidth=2;" vertex="1" parent="e64fO4rDvGFqv9mi6fko-9">
          <mxGeometry x="1070" y="30" width="110" height="60" as="geometry" />
        </mxCell>
        <mxCell id="e64fO4rDvGFqv9mi6fko-50" value="" style="edgeStyle=orthogonalEdgeStyle;rounded=0;orthogonalLoop=1;jettySize=auto;html=1;" edge="1" parent="e64fO4rDvGFqv9mi6fko-9" source="e64fO4rDvGFqv9mi6fko-44" target="e64fO4rDvGFqv9mi6fko-46">
          <mxGeometry relative="1" as="geometry" />
        </mxCell>
        <mxCell id="e64fO4rDvGFqv9mi6fko-44" value="测试通过" style="rounded=1;whiteSpace=wrap;html=1;absoluteArcSize=1;arcSize=14;strokeWidth=2;" vertex="1" parent="e64fO4rDvGFqv9mi6fko-9">
          <mxGeometry x="1240" y="30" width="110" height="60" as="geometry" />
        </mxCell>
        <mxCell id="e64fO4rDvGFqv9mi6fko-46" value="打包发布" style="rounded=1;whiteSpace=wrap;html=1;absoluteArcSize=1;arcSize=14;strokeWidth=2;" vertex="1" parent="e64fO4rDvGFqv9mi6fko-9">
          <mxGeometry x="1410" y="30" width="110" height="60" as="geometry" />
        </mxCell>
        <mxCell id="e64fO4rDvGFqv9mi6fko-53" value="" style="rounded=0;orthogonalLoop=1;jettySize=auto;html=1;exitX=0.5;exitY=1;exitDx=0;exitDy=0;entryX=0.5;entryY=0;entryDx=0;entryDy=0;" edge="1" parent="e64fO4rDvGFqv9mi6fko-7" source="e64fO4rDvGFqv9mi6fko-24" target="e64fO4rDvGFqv9mi6fko-40">
          <mxGeometry relative="1" as="geometry">
            <mxPoint x="1040" y="34.99999999999977" as="sourcePoint" />
            <mxPoint x="1155" y="124.99999999999977" as="targetPoint" />
          </mxGeometry>
        </mxCell>
      </root>
    </mxGraphModel>
  </diagram>
</mxfile>
